<?xml version="1.0" standalone="no"?><svg xmlns="http://www.w3.org/2000/svg" viewBox="0 0 1440 320"><path fill="#0099ff" fill-opacity="1" d="M0,224L34.3,202.7C68.6,181,137,139,206,133.3C274.3,128,343,160,411,154.7C480,149,549,107,617,112C685.7,117,754,171,823,186.7C891.4,203,960,181,1029,160C1097.1,139,1166,117,1234,117.3C1302.9,117,1371,139,1406,149.3L1440,160L1440,320L1405.7,320C1371.4,320,1303,320,1234,320C1165.7,320,1097,320,1029,320C960,320,891,320,823,320C754.3,320,686,320,617,320C548.6,320,480,320,411,320C342.9,320,274,320,206,320C137.1,320,69,320,34,320L0,320Z"></path></svg>